ply
format ascii 1.0
comment VCGLIB generated
element vertex 32
property float x
property float y
property float z
end_header
-543.8791 -15140.9 22 
-938.9509 -15264.16 22 
-543.879 -15264.16 22 
-938.9509 -15140.36 22 
-543.8792 -15025.9 22 
-946.3461 -15264.16 22 
-951.2768 -15140.36 22 
-951.2767 -15264.16 22 
-946.3461 -15140.36 22 
-951.2768 -15025.36 22 
-938.9509 -15025.36 22 
-543.8792 -14910.9 22 
-946.3461 -15025.36 22 
-938.9517 -14910.36 22 
-543.8799 -14795.9 22 
-946.3467 -14910.36 22 
-951.2769 -14910.36 22 
-951.2769 -14795.36 22 
-938.9517 -14795.36 22 
-543.88 -14680.9 22 
-946.3467 -14795.36 22 
-951.277 -14680.36 22 
-938.9518 -14680.36 22 
-543.88 -14565.9 22 
-946.3467 -14680.36 22 
-951.277 -14565.36 22 
-938.9518 -14565.36 22 
-543.8801 -14442.64 22 
-938.9519 -14442.64 22 
-946.3468 -14565.36 22 
-951.277 -14442.64 22 
-946.3469 -14442.64 22 